<svg id="Ebene_1" data-name="Ebene 1" xmlns="http://www.w3.org/2000/svg" viewBox="0 0 533.55 544.32"><defs><style>.cls-1{fill:#fff;}</style></defs><path class="cls-1" d="M533.5,278.4a320.07,320.07,0,0,0-4.7-55.3H272.1V327.9h147a126,126,0,0,1-54.4,82.7v68h87.7c51.5-47.4,81.1-117.4,81.1-200.2Z" transform="translate(0.05 0.02)"/><path class="cls-1" d="M272.1,544.3c73.4,0,135.3-24.1,180.4-65.7l-87.7-68c-24.4,16.6-55.9,26-92.6,26-71,0-131.2-47.9-152.8-112.3H28.9v70.1A272.19,272.19,0,0,0,272.1,544.3Z" transform="translate(0.05 0.02)"/><path class="cls-1" d="M119.3,324.3a163,163,0,0,1,0-104.2V150H28.9a272.38,272.38,0,0,0,0,244.4Z" transform="translate(0.05 0.02)"/><path class="cls-1" d="M272.1,107.7a147.89,147.89,0,0,1,104.4,40.8l77.7-77.7A261.56,261.56,0,0,0,272.1,0,272.1,272.1,0,0,0,28.9,150l90.4,70.1C140.8,155.6,201.1,107.7,272.1,107.7Z" transform="translate(0.05 0.02)"/></svg>